<svg xmlns="http://www.w3.org/2000/svg" width="80px" height="80px" viewBox="0 0 63.937 63.94">
  <defs>
    <style>
      .cls-1 {
        fill: #c8535a;
        fill-rule: evenodd;
      }
    </style>
  </defs>
  <path id="m_wand" data-name="m wand" class="cls-1" d="M673.385,1580.54l-4.18-4.18,11.445-11.45,4.18,4.18Zm17.46-11.45a2.461,2.461,0,0,0-.7-1.76l-7.734-7.73a2.558,2.558,0,0,0-3.516,0l-50.234,50.23a2.555,2.555,0,0,0,0,3.52l7.734,7.73a2.531,2.531,0,0,0,3.516,0l50.234-50.23A2.444,2.444,0,0,0,690.845,1569.09Zm-52.773-7.42-1.172-3.83-1.172,3.83-3.828,1.17,3.828,1.17,1.172,3.83,1.172-3.83,3.828-1.17Zm13.672,6.33-2.344-7.66-2.344,7.66-7.656,2.34,7.656,2.35,2.344,7.65,2.344-7.65,7.656-2.35Zm36.328,18.67-1.172-3.83-1.172,3.83-3.828,1.17,3.828,1.17,1.172,3.83,1.172-3.83,3.828-1.17Zm-25-25-1.172-3.83-1.172,3.83-3.828,1.17,3.828,1.17,1.172,3.83,1.172-3.83,3.828-1.17Z" transform="translate(-627.969 -1557.84)"/>
</svg>
