<svg xmlns="http://www.w3.org/2000/svg" width="32.469" height="55.688" viewBox="0 0 32.469 55.688">
  <defs>
    <style>
      .cls-1 {
        fill: #fff;
        fill-rule: evenodd;
      }
    </style>
  </defs>
  <path id="arrow-l.png" class="cls-1" d="M49.8,502.858a1.921,1.921,0,0,1,.558-1.283l26-26a1.755,1.755,0,0,1,2.567,0l2.79,2.79a1.755,1.755,0,0,1,0,2.567l-21.93,21.93,21.93,21.93a1.922,1.922,0,0,1,.558,1.283,1.816,1.816,0,0,1-.558,1.284l-2.79,2.79a1.755,1.755,0,0,1-2.567,0l-26-26A1.926,1.926,0,0,1,49.8,502.858Z" transform="translate(-49.813 -475)"/>
</svg>
