<svg xmlns="http://www.w3.org/2000/svg" width="63.78" height="63.75" viewBox="0 0 63.78 63.75">
  <defs>
    <style>
      .cls-1 {
        fill: #c8535a;
        fill-rule: evenodd;
      }
    </style>
  </defs>
  <path id="rocket" class="cls-1" d="M1242.75,1570.5a3.75,3.75,0,1,1-3.75-3.75A3.751,3.751,0,0,1,1242.75,1570.5Zm8.75-11.25a1.308,1.308,0,0,0-1.33-1.25c-13.59,0-21.05,3.12-30.82,12.85-2.23,2.27-4.53,4.85-6.87,7.62l-14.81.78a1.411,1.411,0,0,0-1.01.62l-8.75,15a1.308,1.308,0,0,0,.19,1.53l2.5,2.5a1.341,1.341,0,0,0,.9.35,1.048,1.048,0,0,0,.35-0.04l10.78-3.32,10.98,10.98-3.32,10.78a1.348,1.348,0,0,0,.31,1.25l2.5,2.5a1.4,1.4,0,0,0,.9.35,1.107,1.107,0,0,0,.62-0.16l15-8.75a1.392,1.392,0,0,0,.63-1.01l0.78-14.81c2.77-2.34,5.35-4.65,7.62-6.87C1247.91,1580.85,1251.5,1572.22,1251.5,1559.25Z" transform="translate(-1187.72 -1558)"/>
</svg>
